<?xml version="1.0" encoding="UTF-8"?>
<svg id="a" data-name="Layer 1" xmlns="http://www.w3.org/2000/svg" xmlns:xlink="http://www.w3.org/1999/xlink" viewBox="0 0 378.22 180.74">
  <defs>
    <style>
      .d {
        fill: #ffffff;
      }

      .e {
        fill: #f3433d;
      }

      .f {
        clip-path: url(#b);
      }
    </style>
    <clipPath id="b">
      <rect class="d" width="378.22" height="145.16"/>
    </clipPath>
  </defs>
  <g class="f">
    <g id="c" data-name="1RHK0E.tif">
      <g>
        <path class="e" d="M44.66,94.1c-1.67,0-1.73,.03-.99,1.64,4.49,9.77,12.05,15.49,22.74,16.98,8.24,1.14,15.85-.71,22.76-5.2,5.37-3.49,12.81-1.77,16.21,3.23,3.57,5.24,2.39,12.62-2.85,16.44-6.32,4.61-13.47,7.39-21.13,8.72-14.94,2.59-29.05,.54-41.82-8.09-9.98-6.74-16.43-16.03-19.99-27.5-6.49-20.91-2-39.3,12.95-55.02,6.95-7.31,15.8-11.83,25.76-13.74,15.18-2.9,29.51-.72,42.6,7.88,3.03,1.99,5.28,4.4,6.15,7.88,1.95,7.74-4.63,15.31-12.57,14.46-2.11-.23-4.05-.97-5.93-2.17-10-6.37-20.51-7.92-31.51-2.78-5.78,2.7-9.84,7.26-12.93,12.75-.75,1.32,.02,1.3,.97,1.29,9.48-.04,20.36-.1,29.84-.12,19.03,0,19.18,23.4-.25,23.4,0,.01-22.26-.05-30.03-.05Z"/>
        <path class="e" d="M158.34,136.92c-15.89-.13-29.6-5.73-40.54-17.84-6.25-6.92-10.42-15.51-12.16-24.68-2.62-13.85-.63-26.89,6.62-38.71,7.05-11.51,17.16-19.27,30.17-23.11,10.16-3,20.44-3.06,30.65-.46,6.63,1.69,12.85,4.52,18.32,8.74,4.07,3.14,5.21,7.54,3.76,12.54-.9,3.1-3.01,5.77-5.92,7.19-3.78,1.84-7.89,1.96-11.38-.47-3.85-2.68-8.06-4.58-12.69-5.53-16.86-3.47-33.24,6.47-35.86,24.51-1.1,7.57,.66,15.36,5.05,21.62,4.08,5.82,9.72,9.64,16.75,11.35,9.52,2.31,18.34,.45,26.58-4.62,3.97-2.44,8.05-2.53,12.01-.29,3.35,1.89,5.68,5.3,6.08,9.13,.52,4.94-1.55,8.67-5.37,11.22-7.25,4.83-15.25,7.66-23.88,8.81-2.73,.36-5.45,.67-8.21,.6Z"/>
        <path class="e" d="M197.98,55.12c0-12.88-.05-25.75,.02-38.63,.03-4.93,2.55-8.45,6.96-10.48,7.44-3.43,16.51,2.02,16.64,10.17,.2,13.18,.09,26.37,.09,39.56,0,11.69-.05,23.38-.03,35.06,0,4.74,1.1,9.24,3.77,13.21,4.76,7.07,11.65,9.67,19.94,9.15,2.53-.16,5-.78,7.54-.88,5.68-.24,10.35,3.64,11.55,8.66,1.42,5.91-1.15,11.33-6.45,13.78-2.95,1.37-6.13,1.76-9.31,2.13-7.19,.84-14.24,.22-21.12-2.1-8.71-2.93-15.65-8.26-20.96-15.71-5.99-8.4-8.68-17.82-8.65-28.08,.03-11.95,0-23.89,0-35.84,0,0,0,0-.01,0Z"/>
        <path class="e" d="M364.51,76.86c-1.39-9.49-4.63-18.27-10.69-25.78-13.78-17.08-31.71-24.04-53.23-19.97-28.96,5.48-47.5,33.47-42.12,62.45,4.3,23.15,23.8,41.53,48.42,43.46,11.05,.86,21.62-1.23,31.29-6.83,13.68-7.92,22.08-19.69,25.46-35.1,.47-2.13,.46-4.34,1.2-6.42v-9.93c-.6-.54-.24-1.25-.33-1.87Zm-53.35,35.4c-16.02-.27-28.69-12.7-28.66-28.74,.04-16.05,12.73-28.63,28.77-28.57,16,.05,28.58,12.63,28.59,28.61,0,16.18-12.8,28.47-28.7,28.71Z"/>
      </g>
    </g>
  </g>
  <g>
    <path class="d" d="M163.99,157.5l-5.69,8.19-.77,4.37h-2.54l.79-4.37-2.83-8.19h2.84l1.67,5.71,3.67-5.71h2.84Z"/>
    <path class="d" d="M165.43,169.7c-.65-.35-1.16-.84-1.52-1.48-.36-.64-.54-1.37-.54-2.2,0-1.13,.27-2.16,.8-3.09,.53-.93,1.27-1.67,2.2-2.21,.93-.54,1.96-.81,3.1-.81,.85,0,1.61,.18,2.28,.53,.67,.35,1.18,.85,1.55,1.48,.37,.64,.55,1.37,.55,2.2,0,1.14-.27,2.17-.81,3.1-.54,.92-1.28,1.65-2.22,2.19-.94,.53-1.98,.8-3.12,.8-.85,0-1.6-.17-2.26-.52Zm4.24-2.16c.49-.35,.88-.81,1.15-1.39s.41-1.18,.41-1.82c0-.72-.2-1.28-.6-1.67-.4-.39-.91-.58-1.52-.58s-1.15,.17-1.63,.52c-.47,.35-.84,.81-1.11,1.4-.26,.58-.4,1.2-.4,1.84,0,.71,.19,1.25,.57,1.64,.38,.38,.87,.58,1.48,.58s1.15-.17,1.64-.52Z"/>
    <path class="d" d="M185.88,160.09l-1.76,9.97h-2.52l.22-1.26c-.38,.43-.86,.77-1.42,1.02-.56,.25-1.16,.37-1.78,.37-1.03,0-1.85-.28-2.45-.84-.6-.56-.9-1.35-.9-2.38,0-.38,.03-.73,.09-1.03l1.03-5.85h2.52l-.97,5.49c-.04,.22-.05,.43-.05,.63,0,.59,.16,1.04,.49,1.36,.32,.32,.78,.48,1.37,.48,.68,0,1.27-.21,1.75-.64,.48-.43,.79-1.04,.92-1.83l.97-5.49h2.52Z"/>
    <path class="d" d="M192.11,160.45c.58-.34,1.2-.5,1.87-.5l-.47,2.65h-.67c-.74,0-1.34,.16-1.79,.49-.45,.32-.78,.88-.98,1.66l-.94,5.33h-2.54l1.76-9.97h2.54l-.31,1.76c.43-.6,.94-1.07,1.51-1.4Z"/>
    <path class="d" d="M200.36,169.34c-.81-.57-1.22-1.37-1.22-2.4,0-.11,.01-.27,.04-.49h2.57c-.05,.5,.09,.92,.41,1.24,.32,.32,.78,.49,1.39,.49s1.09-.13,1.45-.39c.35-.26,.53-.63,.53-1.11,0-.44-.18-.8-.55-1.06-.37-.26-.94-.56-1.72-.88-.72-.3-1.3-.58-1.75-.83s-.83-.6-1.15-1.05c-.32-.45-.48-1.02-.48-1.7,0-.78,.2-1.46,.6-2.03,.4-.58,.95-1.02,1.66-1.33,.7-.31,1.5-.47,2.4-.47s1.66,.15,2.31,.44c.65,.29,1.15,.71,1.48,1.25s.47,1.17,.42,1.89h-2.68l.02-.2c0-.4-.15-.72-.44-.97-.29-.25-.71-.38-1.23-.38-.56,0-1.02,.13-1.37,.4-.35,.26-.52,.62-.52,1.08,0,.3,.1,.56,.3,.78,.2,.22,.44,.41,.73,.58s.7,.37,1.24,.62c.71,.31,1.29,.61,1.75,.88,.46,.28,.85,.64,1.17,1.1,.32,.46,.49,1.01,.49,1.67,0,.72-.2,1.36-.58,1.93-.39,.56-.94,1-1.66,1.32-.71,.32-1.54,.48-2.49,.48-1.26,0-2.29-.29-3.1-.85Z"/>
    <path class="d" d="M213.12,160.09l1.33,6.97,3.87-6.97h2.68l-8.77,14.69h-2.68l3.02-4.97-2.29-9.72h2.83Z"/>
    <path class="d" d="M222.48,169.86c-.59-.25-1.06-.59-1.4-1.03-.34-.44-.51-.94-.51-1.5,0-.08,.01-.22,.04-.41h2.45c-.04,.42,.09,.76,.38,1.02s.7,.39,1.22,.39c.48,0,.88-.09,1.2-.26,.32-.17,.48-.43,.48-.77,0-.3-.15-.54-.44-.72-.29-.18-.76-.38-1.4-.61-.64-.23-1.16-.45-1.58-.67-.42-.22-.78-.52-1.08-.9s-.45-.87-.45-1.46,.17-1.11,.51-1.57,.82-.81,1.43-1.06c.61-.25,1.31-.38,2.11-.38s1.42,.13,2,.38,1.02,.6,1.34,1.05c.32,.45,.48,.96,.48,1.54,0,.14,0,.25-.02,.32h-2.34c.04-.42-.08-.76-.36-1.01s-.68-.38-1.21-.38c-.43,0-.79,.09-1.06,.28-.28,.19-.41,.44-.41,.75s.16,.57,.47,.77c.31,.2,.79,.42,1.44,.66,.65,.25,1.17,.48,1.56,.69,.39,.21,.73,.5,1.02,.86s.43,.83,.43,1.38c0,.61-.19,1.15-.56,1.6s-.88,.8-1.53,1.04c-.65,.24-1.38,.36-2.2,.36-.73,0-1.4-.12-1.99-.37Z"/>
    <path class="d" d="M233.87,166.99c-.01,.07-.02,.17-.02,.29,0,.24,.07,.41,.21,.51,.14,.1,.37,.15,.69,.15h1.19l-.38,2.12h-1.6c-1.8,0-2.7-.75-2.7-2.25,0-.29,.02-.57,.07-.85l.85-4.81h-1.19l.36-2.07h1.21l.43-2.47h2.54l-.43,2.47h2.21l-.36,2.07h-2.23l-.85,4.82Z"/>
    <path class="d" d="M246.54,160.98c.74,.7,1.12,1.65,1.12,2.83,0,.38-.03,.73-.09,1.03-.07,.36-.15,.67-.23,.94h-7.29c-.01,.08-.02,.2-.02,.36,0,.62,.18,1.11,.55,1.47,.37,.35,.85,.53,1.45,.53,.5,0,.94-.11,1.3-.33s.66-.51,.89-.87h2.72c-.44,.96-1.13,1.75-2.06,2.37-.93,.62-1.98,.93-3.16,.93-1.27,0-2.29-.36-3.06-1.08s-1.15-1.7-1.15-2.93c0-.36,.04-.74,.11-1.13,.18-1.03,.55-1.94,1.11-2.72,.56-.78,1.25-1.38,2.08-1.8,.83-.42,1.73-.63,2.72-.63,1.27,0,2.28,.35,3.02,1.05Zm-1.44,2.85c0-.58-.19-1.03-.56-1.35s-.86-.49-1.46-.49c-.64,0-1.21,.2-1.71,.6-.5,.4-.86,.95-1.06,1.65h4.75c.02-.19,.04-.33,.04-.41Z"/>
    <path class="d" d="M265.15,160.79c.61,.56,.92,1.36,.92,2.39,0,.38-.03,.73-.09,1.03l-1.04,5.85h-2.5l.97-5.51c.04-.22,.05-.43,.05-.63,0-.58-.16-1.02-.48-1.32-.32-.31-.77-.46-1.36-.46-.7,0-1.28,.21-1.76,.62-.48,.41-.78,1.01-.9,1.79v-.02l-.99,5.53h-2.5l.97-5.51c.04-.22,.05-.42,.05-.61,0-.59-.16-1.04-.49-1.34-.32-.31-.78-.46-1.37-.46-.66,0-1.23,.2-1.7,.58-.47,.39-.78,.95-.93,1.67l-1.01,5.67h-2.54l1.76-9.97h2.54l-.22,1.19c.4-.41,.87-.73,1.42-.97,.55-.24,1.13-.36,1.75-.36,.78,0,1.45,.17,2,.5,.55,.33,.94,.8,1.17,1.41,.42-.58,.97-1.04,1.65-1.39,.68-.35,1.38-.52,2.12-.52,1.06,0,1.89,.28,2.5,.85Z"/>
    <path class="d" d="M270.64,167.38l-2.99,5.09h-1.66l1.98-5.09h2.66Z"/>
    <path class="d" d="M288.97,157.5l-5.69,8.19-.77,4.37h-2.54l.79-4.37-2.83-8.19h2.84l1.67,5.71,3.67-5.71h2.84Z"/>
    <path class="d" d="M290.4,169.7c-.65-.35-1.16-.84-1.52-1.48-.36-.64-.54-1.37-.54-2.2,0-1.13,.27-2.16,.8-3.09,.53-.93,1.27-1.67,2.2-2.21,.93-.54,1.96-.81,3.11-.81,.85,0,1.61,.18,2.28,.53,.67,.35,1.18,.85,1.55,1.48,.37,.64,.55,1.37,.55,2.2,0,1.14-.27,2.17-.81,3.1-.54,.92-1.28,1.65-2.22,2.19s-1.98,.8-3.12,.8c-.85,0-1.6-.17-2.26-.52Zm4.24-2.16c.49-.35,.88-.81,1.15-1.39,.28-.58,.41-1.18,.41-1.82,0-.72-.2-1.28-.6-1.67-.4-.39-.91-.58-1.52-.58s-1.15,.17-1.63,.52c-.47,.35-.84,.81-1.11,1.4-.26,.58-.4,1.2-.4,1.84,0,.71,.19,1.25,.57,1.64,.38,.38,.87,.58,1.48,.58s1.15-.17,1.64-.52Z"/>
    <path class="d" d="M310.85,160.09l-1.76,9.97h-2.52l.22-1.26c-.38,.43-.86,.77-1.42,1.02s-1.16,.37-1.78,.37c-1.03,0-1.85-.28-2.45-.84-.6-.56-.9-1.35-.9-2.38,0-.38,.03-.73,.09-1.03l1.03-5.85h2.52l-.97,5.49c-.04,.22-.05,.43-.05,.63,0,.59,.16,1.04,.49,1.36,.32,.32,.78,.48,1.37,.48,.68,0,1.27-.21,1.75-.64,.48-.43,.79-1.04,.92-1.83l.97-5.49h2.52Z"/>
    <path class="d" d="M317.08,160.45c.58-.34,1.2-.5,1.87-.5l-.47,2.65h-.67c-.74,0-1.34,.16-1.79,.49-.45,.32-.78,.88-.98,1.66l-.94,5.33h-2.54l1.76-9.97h2.54l-.31,1.76c.43-.6,.94-1.07,1.51-1.4Z"/>
    <path class="d" d="M342.7,157.5l-5.74,12.56h-2.97l-.77-8.95-4.03,8.95-2.95,.02-1.17-12.58h2.7l.5,9.76,4.27-9.76h2.81l.68,9.7,3.96-9.7h2.72Z"/>
    <path class="d" d="M343.42,162.36c.53-.78,1.18-1.38,1.95-1.8,.77-.42,1.58-.63,2.43-.63,.74,0,1.37,.15,1.88,.45,.51,.3,.88,.68,1.12,1.13l.25-1.42h2.54l-1.76,9.97h-2.54l.27-1.46c-.4,.47-.91,.86-1.54,1.16s-1.32,.46-2.06,.46-1.38-.17-1.94-.5c-.56-.33-1-.8-1.31-1.4-.31-.61-.47-1.31-.47-2.11,0-.37,.04-.76,.11-1.17,.18-1.01,.54-1.9,1.07-2.68Zm6.83,2.03c0-.71-.21-1.26-.62-1.66-.41-.4-.93-.59-1.56-.59-.47,0-.92,.11-1.36,.34-.44,.23-.82,.56-1.14,1-.32,.44-.54,.96-.65,1.56-.04,.23-.05,.44-.05,.65,0,.72,.2,1.29,.61,1.7,.41,.41,.92,.62,1.55,.62,.47,0,.92-.12,1.37-.35,.44-.23,.82-.57,1.14-1.02,.32-.44,.53-.97,.64-1.57,.05-.31,.07-.54,.07-.68Z"/>
    <path class="d" d="M357.74,160.09l1.33,6.97,3.87-6.97h2.68l-8.77,14.69h-2.68l3.02-4.97-2.29-9.72h2.83Z"/>
  </g>
</svg>